<svg width="272" height="69" viewBox="0 0 272 69" fill="none" xmlns="http://www.w3.org/2000/svg">
<g clip-path="url(#clip0_1700_27578)">
<path d="M38.8418 0.00320399L19.9387 18.9062L38.8418 37.8093L57.7448 18.9062L38.8418 0.00320399Z" fill="white"/>
<path d="M38.8032 20.4468L31.3975 27.8525L38.8032 35.2583L46.2089 27.8525L38.8032 20.4468Z" fill="#92C83E"/>
<path d="M47.4848 26.7569L31.1538 10.3931L39.0078 2.54297L55.3388 18.9029L47.4848 26.7569Z" fill="#3066AC"/>
<path d="M29.7453 11.5872L22.3423 18.9902L29.7508 26.3987L37.1538 18.9957L29.7453 11.5872Z" fill="#989898"/>
<path d="M29.3677 40.9656C29.7033 41.8355 29.8653 43.4402 29.8653 45.774V57.6496H32.718V45.7683C32.718 45.1916 32.7025 44.6554 32.6775 44.1404L29.2134 40.6377C29.2655 40.7457 29.3233 40.8499 29.3658 40.9637L29.3677 40.9656Z" fill="white"/>
<path d="M20.8308 36.6619C19.4344 37.5492 18.2694 38.8492 17.3397 40.5562C16.898 39.2735 16.3792 38.2898 15.7774 37.6032C15.1698 36.9146 14.4022 36.363 13.4513 35.9502C12.5023 35.5355 11.5013 35.333 10.4462 35.333C8.88199 35.333 7.38912 35.7535 5.97339 36.5964C4.94535 37.2367 3.94431 38.2493 2.97027 39.638V35.8769H0.150391V57.651H2.96834V48.4352C2.96256 45.7137 3.23259 43.6924 3.78036 42.3731C4.31463 41.0538 5.15173 40.0026 6.27814 39.2214C7.40455 38.4441 8.61196 38.0545 9.91196 38.0545C11.0287 38.0545 11.9931 38.3361 12.8109 38.907C13.6191 39.4722 14.1919 40.2225 14.5198 41.1656C14.8419 42.1069 15.0059 43.8872 15.0078 46.5161V57.6529H17.8258V49.1354C17.8277 46.0146 18.0842 43.7907 18.6011 42.4541C19.1258 41.1213 19.9436 40.0527 21.0661 39.2542C22.1906 38.4557 23.4289 38.0545 24.7848 38.0545C25.6933 38.0545 26.4918 38.2378 27.19 38.5907L24.0673 35.4314C22.9313 35.605 21.8531 36.0139 20.8327 36.6639L20.8308 36.6619Z" fill="white"/>
<path d="M53.4986 44.3675C51.7472 43.4571 50.59 42.674 50.0422 42.0028C49.4963 41.347 49.2205 40.6526 49.2205 39.9255C49.2205 39.4124 49.3671 38.9437 49.6275 38.5098L46.769 41.3547C46.933 42.1455 47.2377 42.8823 47.718 43.5497C48.4432 44.5623 49.8107 45.5788 51.8302 46.6222C53.7088 47.5828 54.9181 48.3774 55.4524 49.0081C55.9886 49.6523 56.2587 50.3795 56.2606 51.2031C56.2587 52.2041 55.8517 53.0721 55.0397 53.8127C54.2315 54.5495 53.244 54.9218 52.0944 54.9237C50.4434 54.9218 48.8849 54.0905 47.4152 52.424L45.6079 54.4782C46.3794 55.4599 47.3457 56.2372 48.5223 56.8043C49.6911 57.3655 50.9236 57.6491 52.214 57.6491C54.1447 57.6491 55.761 57.0126 57.0475 55.7415C58.3398 54.4666 58.9821 52.9139 58.9821 51.0796C58.9821 49.7796 58.606 48.605 57.8499 47.5673C57.0861 46.5393 55.6299 45.4688 53.4966 44.3656L53.4986 44.3675Z" fill="white"/>
<path d="M64.9209 19.2419L63.0769 17.1318L38.7993 41.7971L14.2343 17.1299L12.4329 19.3229L36.9361 44.7674L36.9284 57.6517L40.0203 57.6498V44.7655L64.9209 19.2419Z" fill="white"/>
<path d="M52.6094 36.8476C54.0734 36.8476 55.5721 37.5883 57.1035 39.0773L58.9551 37.1678C57.2482 35.5399 55.5528 34.5871 53.8632 34.292L50.8157 37.3279C51.3461 37.0116 51.9421 36.8438 52.6114 36.8476H52.6094Z" fill="white"/>
</g>
<path d="M104.081 43.599L106.401 26.4375H106.666L113.255 40.5172L119.78 26.4375H120.04L122.373 43.599H120.783L119.18 31.327L113.451 43.599H113.038L107.239 31.235L105.645 43.599H104.081Z" fill="white"/>
<path d="M137.243 30.9086V43.5992H135.723V41.4189C135.075 42.2561 134.35 42.8816 133.546 43.3002C132.743 43.7188 131.861 43.9304 130.91 43.9304C129.211 43.9304 127.765 43.2772 126.561 41.9755C125.363 40.6692 124.759 39.0869 124.759 37.2194C124.759 35.3519 125.367 33.8294 126.579 32.5323C127.791 31.2306 129.246 30.582 130.953 30.582C131.939 30.582 132.83 30.8028 133.625 31.2444C134.42 31.6906 135.123 32.3529 135.723 33.2407V30.9086H137.243ZM131.079 32.1597C130.219 32.1597 129.428 32.3805 128.703 32.8313C127.978 33.2775 127.4 33.903 126.97 34.7126C126.54 35.5221 126.327 36.3777 126.327 37.2746C126.327 38.1715 126.544 39.0225 126.974 39.8366C127.409 40.6508 127.986 41.2856 128.72 41.7455C129.45 42.2009 130.232 42.4263 131.07 42.4263C131.909 42.4263 132.712 42.2009 133.468 41.7501C134.224 41.2993 134.806 40.6876 135.214 39.924C135.623 39.1559 135.827 38.2865 135.827 37.3206C135.827 35.8533 135.371 34.6298 134.454 33.6408C133.542 32.6519 132.417 32.1597 131.083 32.1597H131.079Z" fill="white"/>
<path d="M140.734 30.9086H142.276V33.2407C142.885 32.3575 143.584 31.6906 144.379 31.2444C145.169 30.8028 146.056 30.582 147.033 30.582C148.736 30.582 150.191 31.2306 151.403 32.5323C152.615 33.8294 153.219 35.3933 153.219 37.2194C153.219 39.0455 152.619 40.6692 151.42 41.9755C150.221 43.2772 148.775 43.9304 147.076 43.9304C146.121 43.9304 145.248 43.7188 144.444 43.3002C143.645 42.8816 142.924 42.2561 142.276 41.4189V48.2449H140.734V30.9086ZM146.903 32.1597C145.569 32.1597 144.444 32.6519 143.532 33.6408C142.62 34.6298 142.164 35.8533 142.164 37.3206C142.164 38.2865 142.368 39.1513 142.776 39.924C143.18 40.6922 143.766 41.2993 144.522 41.7501C145.282 42.2009 146.082 42.4263 146.924 42.4263C147.767 42.4263 148.532 42.2009 149.261 41.7455C149.991 41.2855 150.573 40.6554 151.003 39.8366C151.438 39.0225 151.651 38.1669 151.651 37.2746C151.651 36.3823 151.438 35.5221 151.008 34.7126C150.578 33.903 150 33.2775 149.274 32.8313C148.549 32.3805 147.758 32.1597 146.903 32.1597Z" fill="white"/>
<path d="M161.324 26.4434H163.187L167.336 33.5223L171.414 26.4434H173.287L168.152 35.4036V43.6049H166.554V35.4036L161.319 26.4434H161.324Z" fill="white"/>
<path d="M179.369 30.582C181.215 30.582 182.744 31.2904 183.96 32.7071C185.064 33.995 185.615 35.5267 185.615 37.293C185.615 39.0593 185.033 40.614 183.865 41.9387C182.701 43.268 181.198 43.9304 179.369 43.9304C177.54 43.9304 176.028 43.268 174.86 41.9387C173.696 40.614 173.109 39.0685 173.109 37.293C173.109 35.5175 173.661 34.0088 174.764 32.7209C175.976 31.2996 177.514 30.5866 179.369 30.5866V30.582ZM179.36 32.1827C178.079 32.1827 176.975 32.6841 176.055 33.6914C175.134 34.6942 174.673 35.9085 174.673 37.3298C174.673 38.2451 174.882 39.1053 175.303 39.8964C175.724 40.6876 176.289 41.2993 177.006 41.7317C177.718 42.1687 178.504 42.3803 179.36 42.3803C180.216 42.3803 181.002 42.1687 181.715 41.7317C182.431 41.2993 182.996 40.6922 183.417 39.8964C183.839 39.1053 184.047 38.2451 184.047 37.3298C184.047 35.9085 183.582 34.6942 182.657 33.6914C181.732 32.6887 180.633 32.1827 179.356 32.1827H179.36Z" fill="white"/>
<path d="M188.269 30.9102H189.811V36.8346C189.811 38.2835 189.884 39.2816 190.032 39.8198C190.254 40.5971 190.675 41.2135 191.296 41.6643C191.917 42.115 192.66 42.3404 193.52 42.3404C194.38 42.3404 195.11 42.1196 195.71 41.6827C196.309 41.2457 196.722 40.6661 196.948 39.9532C197.104 39.461 197.182 38.4215 197.182 36.8392V30.9148H198.755V37.1428C198.755 38.8952 198.564 40.2108 198.177 41.0985C197.79 41.9817 197.208 42.6762 196.435 43.1822C195.662 43.6835 194.689 43.9319 193.52 43.9319C192.352 43.9319 191.379 43.6789 190.597 43.1822C189.815 42.6808 189.233 41.9817 188.846 41.0801C188.46 40.1832 188.269 38.8309 188.269 37.0278V30.9194V30.9102Z" fill="white"/>
<path d="M201.598 30.9074H203.174V32.761C203.644 32.0297 204.139 31.4823 204.66 31.1189C205.181 30.7556 205.724 30.5762 206.293 30.5762C206.719 30.5762 207.175 30.7234 207.657 31.0085L206.854 32.3839C206.528 32.2367 206.259 32.1631 206.037 32.1631C205.525 32.1631 205.025 32.3885 204.551 32.8346C204.074 33.2808 203.709 33.9754 203.461 34.9183C203.27 35.6404 203.174 37.1032 203.174 39.3064V43.5979H201.598V30.9074Z" fill="white"/>
<path d="M213.792 40.4017L215.169 39.5277C216.138 41.4136 217.258 42.3612 218.527 42.3612C219.07 42.3612 219.582 42.2278 220.06 41.961C220.538 41.6896 220.903 41.3308 221.15 40.8801C221.402 40.4247 221.524 39.9509 221.524 39.4403C221.524 38.87 221.342 38.3042 220.972 37.7523C220.469 36.9887 219.539 36.0734 218.197 34.997C216.846 33.9161 216.003 33.1341 215.673 32.6512C215.1 31.8416 214.813 30.9677 214.813 30.0247C214.813 29.275 214.982 28.5988 215.317 27.9825C215.656 27.3661 216.129 26.8831 216.746 26.529C217.358 26.1748 218.023 26 218.744 26C219.509 26 220.221 26.2024 220.886 26.6026C221.55 27.0027 222.254 27.7387 222.997 28.8104L221.676 29.873C221.064 29.0174 220.547 28.4562 220.117 28.1849C219.687 27.9135 219.222 27.7755 218.714 27.7755C218.058 27.7755 217.528 27.9871 217.111 28.4056C216.698 28.8242 216.49 29.344 216.49 29.9603C216.49 30.3329 216.563 30.6963 216.711 31.0413C216.859 31.3909 217.124 31.7726 217.515 32.1866C217.728 32.4028 218.423 32.9778 219.608 33.9023C221.011 34.997 221.971 35.9722 222.497 36.8277C223.018 37.6879 223.279 38.5434 223.279 39.4081C223.279 40.6547 222.832 41.7356 221.941 42.6555C221.046 43.5709 219.965 44.0309 218.683 44.0309C217.701 44.0309 216.807 43.7503 216.007 43.1983C215.208 42.6417 214.47 41.7126 213.792 40.4017Z" fill="white"/>
<path d="M226.453 26.0098H227.995V33.1853C228.616 32.316 229.307 31.6628 230.054 31.2304C230.801 30.7981 231.614 30.5819 232.491 30.5819C233.369 30.5819 234.181 30.8211 234.876 31.3086C235.571 31.787 236.079 32.4356 236.414 33.2497C236.744 34.0639 236.909 35.338 236.909 37.0721V43.6036H235.367V37.5504C235.367 36.0877 235.31 35.1126 235.202 34.6204C235.011 33.7833 234.663 33.1485 234.159 32.7253C233.655 32.3022 232.999 32.0906 232.183 32.0906C231.249 32.0906 230.415 32.4126 229.676 33.0657C228.938 33.7235 228.451 34.5284 228.217 35.4944C228.069 36.1153 227.995 37.2652 227.995 38.9441V43.599H226.453V26.0098Z" fill="white"/>
<path d="M245.883 30.582C247.729 30.582 249.263 31.2904 250.474 32.7071C251.578 33.995 252.129 35.5267 252.129 37.293C252.129 39.0593 251.547 40.614 250.379 41.9387C249.21 43.268 247.712 43.9304 245.879 43.9304C244.046 43.9304 242.538 43.268 241.37 41.9387C240.206 40.614 239.619 39.0685 239.619 37.293C239.619 35.5175 240.171 34.0088 241.274 32.7209C242.486 31.2996 244.024 30.5866 245.874 30.5866L245.883 30.582ZM245.879 32.1827C244.597 32.1827 243.494 32.6841 242.573 33.6914C241.652 34.6942 241.192 35.9085 241.192 37.3298C241.192 38.2451 241.4 39.1053 241.821 39.8964C242.243 40.6876 242.808 41.2993 243.524 41.7317C244.241 42.1687 245.023 42.3803 245.879 42.3803C246.734 42.3803 247.521 42.1687 248.233 41.7317C248.95 41.2993 249.514 40.6922 249.936 39.8964C250.357 39.1053 250.566 38.2451 250.566 37.3298C250.566 35.9085 250.101 34.6942 249.18 33.6914C248.255 32.6887 247.156 32.1827 245.879 32.1827Z" fill="white"/>
<path d="M253.366 30.9102H254.951L258.626 40.1234L262.449 30.9102H262.731L266.58 40.1234L270.324 30.9102H271.927L266.719 43.6007H266.432L262.601 34.5163L258.769 43.6007H258.483L253.361 30.9102H253.366Z" fill="white"/>
<rect opacity="0.2" x="85.2119" y="13" width="1.89229" height="47.088" fill="white" fill-opacity="0.8"/>
<defs>
<clipPath id="clip0_1700_27578">
<rect width="65" height="57.6706" fill="white"/>
</clipPath>
</defs>
</svg>
